HIERARCHY
ROOT locator2
{
  OFFSET 53.6172 30.1899 0.816905
  CHANNELS 6 Xposition Yposition Zposition Zrotation Xrotation Yrotation
  JOINT koshi
  {
    OFFSET 0 0 0
    CHANNELS 6 Xposition Yposition Zposition Zrotation Xrotation Yrotation
    JOINT sippo01
    {
      OFFSET 0 42.8363 -0.548134
      CHANNELS 6 Xposition Yposition Zposition Zrotation Xrotation Yrotation
      JOINT sippo02
      {
        OFFSET 0 44.0461 -3.28882
        CHANNELS 6 Xposition Yposition Zposition Zrotation Xrotation Yrotation
        JOINT sippo03
        {
          OFFSET 0 34.1929 -2.46662
          CHANNELS 6 Xposition Yposition Zposition Zrotation Xrotation Yrotation
          JOINT sippo04
          {
            OFFSET 0 30.0959 -1.75404
            CHANNELS 6 Xposition Yposition Zposition Zrotation Xrotation Yrotation
            JOINT sippo05
            {
              OFFSET 0 28.3637 -1.75404
              CHANNELS 6 Xposition Yposition Zposition Zrotation Xrotation Yrotation
              JOINT sippo06
              {
                OFFSET 0 31.6071 -3.2043
                CHANNELS 6 Xposition Yposition Zposition Zrotation Xrotation Yrotation
                End Site
                {
                  OFFSET 0 0 0
                }
              }
            }
          }
        }
      }
    }
    JOINT R_momo
    {
      OFFSET -27.891 13.5892 3.92723
      CHANNELS 6 Xposition Yposition Zposition Zrotation Xrotation Yrotation
      JOINT R_hiza
      {
        OFFSET 0 28.01 1.8232
        CHANNELS 6 Xposition Yposition Zposition Zrotation Xrotation Yrotation
        JOINT R_ashi
        {
          OFFSET 0 24.3992 -2.49174
          CHANNELS 6 Xposition Yposition Zposition Zrotation Xrotation Yrotation
          End Site
          {
            OFFSET 0 0 0
          }
        }
      }
    }
    JOINT L_momo
    {
      OFFSET 27.891 13.5892 3.92714
      CHANNELS 6 Xposition Yposition Zposition Zrotation Xrotation Yrotation
      JOINT L_hiza
      {
        OFFSET 0 28.0098 1.82319
        CHANNELS 6 Xposition Yposition Zposition Zrotation Xrotation Yrotation
        JOINT L_ashi
        {
          OFFSET 0 24.3992 -2.49171
          CHANNELS 6 Xposition Yposition Zposition Zrotation Xrotation Yrotation
          End Site
          {
            OFFSET 0 0 0
          }
        }
      }
    }
  }
  JOINT hara
  {
    OFFSET 0 2.15392 0
    CHANNELS 6 Xposition Yposition Zposition Zrotation Xrotation Yrotation
    JOINT mune
    {
      OFFSET 0 62.0609 0.472494
      CHANNELS 6 Xposition Yposition Zposition Zrotation Xrotation Yrotation
      JOINT R_kata
      {
        OFFSET 22.6695 9.65301 -5.3622
        CHANNELS 6 Xposition Yposition Zposition Zrotation Xrotation Yrotation
        JOINT R_hiji
        {
          OFFSET 0 25.813 1.69098
          CHANNELS 6 Xposition Yposition Zposition Zrotation Xrotation Yrotation
          JOINT R_te
          {
            OFFSET 0 28.5636 -0.966307
            CHANNELS 6 Xposition Yposition Zposition Zrotation Xrotation Yrotation
            End Site
            {
              OFFSET 0 0 0
            }
          }
        }
      }
      JOINT L_kata
      {
        OFFSET -22.6695 9.65298 -5.3622
        CHANNELS 6 Xposition Yposition Zposition Zrotation Xrotation Yrotation
        JOINT L_hiji
        {
          OFFSET 0 25.813 1.69102
          CHANNELS 6 Xposition Yposition Zposition Zrotation Xrotation Yrotation
          JOINT L_te
          {
            OFFSET 0 28.5636 -0.966295
            CHANNELS 6 Xposition Yposition Zposition Zrotation Xrotation Yrotation
            End Site
            {
              OFFSET 0 0 0
            }
          }
        }
      }
      JOINT kubi
      {
        OFFSET 0 23.1438 -0.944988
        CHANNELS 6 Xposition Yposition Zposition Zrotation Xrotation Yrotation
        JOINT atama
        {
          OFFSET 0 20.8625 4.12737
          CHANNELS 6 Xposition Yposition Zposition Zrotation Xrotation Yrotation
          JOINT ago
          {
            OFFSET 0 7.552 -7.58201
            CHANNELS 6 Xposition Yposition Zposition Zrotation Xrotation Yrotation
            End Site
            {
              OFFSET 0 0 0
            }
          }
        }
      }
    }
  }
}
MOTION
Frames:	8
Frame Time:	0.0333333
203.881 29.9517 -0.313252 -90 -3.50835e-015 -90 0 0 0 -172.54 1.71262 0.418216 -4.76837e-007 42.8363 -0.548141 1.09205 -14.8333 4.3368 8.97511e-008 44.0461 -3.28882 3.19283 12.1869 -4.37947 -7.49271e-008 34.1929 -2.46661 3.76652 2.65021 -2.19671 -2.4738e-006 30.0959 -1.75403 3.58301 10.1305 -2.14325 -7.30336e-006 28.3637 -1.75404 7.47378 -1.55889 5.16687 1.05563e-005 31.6072 -3.2043 4.25585 -3.04995 -8.31001 -27.891 13.5892 3.92723 111.879 -30.9871 -46.843 2.09374e-006 28.0099 1.8232 102.919 -88.6769 93.5409 3.95918e-006 24.3992 -2.49173 -155.118 48.8185 -165.336 27.891 13.5892 3.92714 -80.3706 -30.0513 72.1439 -3.70427e-006 28.0098 1.82319 -3.30607 -52.6384 14.9663 2.85606e-007 24.3992 -2.49173 145.142 60.973 163.722 5.96046e-007 2.15392 -3.55271e-015 -1.61324 -1.67076 0.000922678 2.84217e-014 62.0609 0.472496 -2.79723e-007 -2.13279e-008 8.29341e-008 22.6695 9.65299 -5.36221 -146.949 14.2816 17.3366 -2.28882e-005 25.813 1.69098 179.685 -70.6697 176.519 -7.3332e-006 28.5636 -0.966317 69.8665 -10.4315 -92.7144 -22.6695 9.65299 -5.36221 145.867 -1.96558 -43.0827 2.84217e-014 25.813 1.69102 179.797 -77.3253 -178.455 -7.8221e-006 28.5636 -0.966299 -49.4103 18.6401 103.883 -9.53674e-007 23.1438 -0.944998 -1.20078 -3.66074 -4.5584 1.90735e-006 20.8625 4.12737 -1.50471 -3.83132 -4.79355 6.93392e-007 7.55203 -7.58201 -1.01212e-005 4.52042 6.50445e-007 
204.9 29.977 -0.369633 -90 -3.50835e-015 -90 0 0 0 -172.236 1.98143 0.408591 -4.76837e-007 42.8363 -0.548141 1.26433 -15.1933 4.16642 7.62066e-008 44.0461 -3.28882 3.74445 11.2951 -4.60757 -4.2109e-008 34.1929 -2.46661 4.43068 2.13459 -2.04378 -2.41771e-006 30.0959 -1.75403 4.20654 9.89917 -1.79038 -7.15033e-006 28.3637 -1.75404 8.11155 -2.89712 5.34255 1.08558e-005 31.6072 -3.2043 4.56983 -3.82051 -7.73172 -27.891 13.5892 3.92723 110.639 -32.5786 -47.9809 2.10064e-006 28.0099 1.8232 82.7913 -88.6245 73.259 3.92014e-006 24.3992 -2.49173 -154.629 47.9241 -164.845 27.891 13.5892 3.92714 -81.4742 -29.2259 71.6384 -3.69534e-006 28.0098 1.82319 -3.58215 -55.0794 15.9382 3.45782e-007 24.3992 -2.49173 144.231 61.8568 163.961 5.96046e-007 2.15392 3.55271e-015 -1.56367 -2.05671 -0.0420783 8.61533e-014 62.0609 0.472496 -2.79723e-007 -2.13279e-008 8.29341e-008 22.6695 9.65299 -5.36221 -145.932 14.8231 20.3075 -2.28882e-005 25.813 1.69098 179.745 -68.1131 176.949 -7.33755e-006 28.5636 -0.966317 66.989 -7.13377 -94.403 -22.6695 9.65299 -5.36221 147.129 -0.617444 -42.5312 0 25.813 1.69102 179.812 -75.9308 -178.471 -7.81862e-006 28.5636 -0.966299 -49.8883 17.8199 103.578 -9.53674e-007 23.1438 -0.944998 -0.927745 -3.31795 -3.29282 1.90735e-006 20.8625 4.12737 -0.969576 -3.46942 -3.49763 7.61292e-007 7.55203 -7.58201 -7.53855e-008 4.07279 -1.13251e-007 
205.929 30.0022 -0.426566 -90 -3.50835e-015 -90 0 0 0 -171.931 2.25123 0.395917 -4.76837e-007 42.8363 -0.548141 1.43921 -15.557 3.99651 6.25067e-008 44.0461 -3.28882 4.29843 10.3953 -4.81992 -5.20866e-009 34.1929 -2.46661 5.10188 1.6141 -1.87692 -2.35484e-006 30.0959 -1.75403 4.83365 9.66537 -1.43013 -6.98675e-006 28.3637 -1.75404 8.76241 -4.24549 5.55078 1.11621e-005 31.6072 -3.2043 4.88842 -4.59794 -7.13892 -27.891 13.5892 3.92723 108.988 -34.257 -49.6503 2.10497e-006 28.0099 1.8232 39.8356 -87.7512 30.1257 3.88231e-006 24.3992 -2.49173 -154.147 47.0281 -164.588 27.891 13.5892 3.92714 -82.6207 -28.3821 72.0459 -3.69802e-006 28.0098 1.82319 -3.9042 -57.5408 16.8745 3.76998e-007 24.3992 -2.49173 143.246 62.7406 164.267 5.96046e-007 2.15392 0 -1.51434 -2.44142 -0.0933494 3.97016e-013 62.0609 0.472496 -2.79723e-007 -2.13279e-008 8.29341e-008 22.6695 9.65299 -5.36221 -142.506 19.7864 24.6861 -2.28882e-005 25.813 1.69098 179.8 -66.1233 179.199 -7.43363e-006 28.5636 -0.966317 60.8963 -3.5017 -89.5115 -22.6695 9.65299 -5.36221 148.989 0.657545 -42.1233 2.84217e-014 25.813 1.69102 179.825 -74.5228 -178.49 -7.81541e-006 28.5636 -0.966299 -50.2094 16.534 102.671 -9.53674e-007 23.1438 -0.944998 -0.469782 -2.88331 -2.13425 1.90735e-006 20.8625 4.12737 -0.564118 -3.01009 -2.20329 8.22596e-007 7.55203 -7.58201 -1.0112e-005 3.62078 4.9074e-007 
206.938 30.0039 -0.482395 -90 -3.50835e-015 -90 0 0 0 -171.631 2.51542 0.381219 -4.76837e-007 42.8363 -0.548141 1.61087 -15.9125 3.83257 4.91108e-008 44.0461 -3.28882 4.8403 9.51214 -5.01153 3.4544e-008 34.1929 -2.46661 5.75876 1.10576 -1.70196 -2.28826e-006 30.0959 -1.75403 5.44763 9.43547 -1.07223 -6.82007e-006 28.3637 -1.75404 9.40706 -5.56153 5.7845 1.14574e-005 31.6072 -3.2043 5.2025 -5.35966 -6.5491 -27.891 13.5892 3.92723 106.636 -34.9772 -51.2488 2.09224e-006 28.0099 1.8232 25.0035 -86.4141 14.3775 3.8401e-006 24.3992 -2.49173 -153.846 46.6219 -164.331 27.891 13.5892 3.92714 -83.7217 -27.5268 72.4934 -3.69711e-006 28.0098 1.82319 -4.27072 -59.9531 17.7406 3.91403e-007 24.3992 -2.49173 142.021 63.7202 164.771 5.96046e-007 2.15392 0 -1.46549 -2.82297 -0.140697 4.84945e-013 62.0609 0.472496 -2.79723e-007 -2.13279e-008 8.29341e-008 22.6695 9.65299 -5.36221 -138.162 25.4445 28.8726 -2.28882e-005 25.813 1.69098 179.843 -64.1718 -178.608 -7.53937e-006 28.5636 -0.966317 54.3398 2.25322 -84.2061 -22.6695 9.65299 -5.36221 150.797 1.95576 -41.8705 0 25.813 1.69102 179.834 -73.2834 -178.562 -7.81451e-006 28.5636 -0.9663 -50.5519 15.2928 101.861 -9.53674e-007 23.1438 -0.944998 -0.110057 -2.28846 -1.12978 1.90735e-006 20.8625 4.12737 -0.166985 -2.38129 -1.03382 8.80741e-007 7.55203 -7.58201 -7.2795e-008 3.17755 -1.91159e-007 
208.119 30.0056 -0.467835 -90 -3.50835e-015 -90 0 0 0 -171.897 2.78721 0.316312 -4.76837e-007 42.8363 -0.548141 1.77914 -15.5068 3.64377 3.55017e-008 44.0461 -3.28882 5.39903 9.602 -5.28081 4.78808e-008 34.1929 -2.46661 6.42508 1.50377 -1.51803 -2.28591e-006 30.0959 -1.75403 6.07868 9.75583 -0.764176 -6.76289e-006 28.3637 -1.75404 9.46159 -5.59839 5.76999 1.15251e-005 31.6072 -3.2043 5.2881 -6.12957 -5.97035 -27.891 13.5892 3.92723 104.203 -35.5608 -52.9306 2.07643e-006 28.0099 1.8232 18.8276 -85.0681 7.27554 3.79201e-006 24.3992 -2.49173 -153.654 45.9972 -163.876 27.891 13.5892 3.92714 -84.4649 -26.3842 72.8552 -3.67588e-006 28.0098 1.82319 -4.72584 -62.2076 18.7519 4.11209e-007 24.3992 -2.49173 141.167 64.8468 164.941 5.96046e-007 2.15392 0 -1.4165 -3.21645 -0.187565 -2.66454e-014 62.0609 0.472496 -2.79723e-007 -2.13279e-008 8.29341e-008 22.6695 9.65299 -5.36221 -133.029 30.5135 31.8412 -2.28882e-005 25.813 1.69098 179.88 -62.5387 -176.359 -7.65669e-006 28.5636 -0.966317 48.3235 9.48206 -77.3735 -22.6695 9.65299 -5.36221 152.373 3.30386 -41.685 2.84217e-014 25.813 1.69102 179.836 -72.6276 -178.641 -7.81559e-006 28.5636 -0.9663 -50.7248 14.1185 100.981 -9.53674e-007 23.1438 -0.944998 0.433602 -1.60205 0.0052546 1.90735e-006 20.8625 4.12737 0.500216 -1.65555 -0.0472293 9.51169e-007 7.55203 -7.582 -1.01057e-005 2.72644 3.35815e-007 
209.183 30.0073 -0.453133 -90 -3.50835e-015 -90 0 0 0 -172.168 3.0563 0.254683 -4.76837e-007 42.8363 -0.548141 1.94786 -15.0952 3.45462 2.1787e-008 44.0461 -3.28882 4.98909 9.70795 -4.8692 1.94819e-008 34.1929 -2.46661 5.91372 1.91113 -1.3016 -2.30703e-006 30.0959 -1.75403 5.94877 10.0924 -0.973988 -6.80691e-006 28.3637 -1.75404 9.53284 -5.64646 5.75159 1.14653e-005 31.6072 -3.2043 5.35995 -5.33351 -5.54079 -27.891 13.5892 3.92723 102.409 -36.9763 -54.2171 2.07466e-006 28.0099 1.8232 20.4664 -85.2325 8.25751 3.73511e-006 24.3992 -2.49173 -154.27 43.6962 -163.689 27.891 13.5892 3.92714 -82.4439 -25.7146 73.0154 -3.61569e-006 28.0098 1.82319 -4.70425 -61.1664 20.3155 5.58422e-007 24.3992 -2.49173 140.21 65.9794 165.689 5.96046e-007 2.15392 3.55271e-015 -1.36662 -3.61786 -0.23336 8.61533e-014 62.0609 0.472496 -2.79723e-007 -2.13279e-008 8.29341e-008 22.6695 9.65299 -5.36221 -131.412 33.7177 36.7419 -2.28882e-005 25.813 1.69098 179.913 -60.9204 -174.988 -7.73452e-006 28.5636 -0.966317 37.9933 12.0086 -72.2654 -22.6695 9.65299 -5.36221 152.442 4.91382 -42.3486 0 25.813 1.69102 179.819 -73.9631 -179.248 -7.83762e-006 28.5636 -0.9663 -50.2369 12.7032 97.7187 -9.53674e-007 23.1438 -0.944998 0.890297 -0.644952 1.51238 1.90735e-006 20.8625 4.12737 1.03968 -0.55258 1.41135 1.03084e-006 7.55203 -7.58201 -1.04661e-005 2.26793 9.42085e-006 
210.227 30.009 -0.438716 -90 -3.50835e-015 -90 0 0 0 -172.438 2.75627 0.271283 -4.76837e-007 42.8363 -0.548141 2.11294 -14.6913 3.63896 5.85798e-009 44.0461 -3.28882 4.58671 9.81083 -4.46479 -5.39612e-009 34.1929 -2.46661 5.41139 2.31021 -1.08312 -2.32149e-006 30.0959 -1.75403 5.82145 10.421 -1.17772 -6.83974e-006 28.3637 -1.75404 9.61166 -5.69962 5.77456 1.14146e-005 31.6072 -3.2043 5.43119 -4.55338 -6.05469 -27.891 13.5892 3.92723 99.6383 -37.3638 -56.0607 2.05198e-006 28.0099 1.8232 16.9693 -84.0288 3.61646 3.67257e-006 24.3992 -2.49173 -154.153 42.903 -163.829 27.891 13.5892 3.92714 -80.8372 -25.0221 73.6799 -3.56737e-006 28.0098 1.82319 -4.72337 -60.403 21.2146 6.48672e-007 24.3992 -2.49173 139.064 67.1333 166.322 5.96046e-007 2.15392 -3.55271e-015 -1.31793 -4.00949 -0.278651 3.7037e-013 62.0609 0.472496 -2.79761e-007 -2.13279e-008 8.29341e-008 22.6695 9.65299 -5.36221 -129.456 35.3286 42.2079 -2.28882e-005 25.813 1.69098 179.938 -62.3466 -174.307 -7.76042e-006 28.5636 -0.966317 27.6249 11.8088 -66.9753 -22.6695 9.65299 -5.36221 153.91 6.57676 -42.1487 5.68434e-014 25.813 1.69102 179.812 -74.1316 -179.551 -7.84722e-006 28.5636 -0.9663 -50.3202 11.1802 95.8843 -9.53674e-007 23.1438 -0.944998 1.15955 0.629802 3.21338 1.90735e-006 20.8625 4.12737 1.56765 0.884034 3.00106 1.1178e-006 7.55203 -7.58201 -1.00971e-005 1.16888 -9.69733e-008 
211.309 30.0107 -0.424156 -90 -3.50835e-015 -90 0 0 0 -172.707 2.45759 0.284775 -4.76837e-007 42.8363 -0.548141 2.27911 -14.2833 3.82365 -1.02189e-008 44.0461 -3.28882 4.17713 9.91512 -4.05189 -3.01244e-008 34.1929 -2.46661 4.90338 2.71433 -0.854787 -2.33239e-006 30.0959 -1.75404 5.6916 10.7562 -1.38401 -6.86779e-006 28.3637 -1.75404 9.66986 -5.11936 5.69377 1.13412e-005 31.6072 -3.2043 5.50416 -3.76344 -6.57723 -27.891 13.5892 3.92723 97.2361 -37.7616 -57.7749 2.03283e-006 28.0099 1.8232 14.9698 -82.9574 0.462662 3.61034e-006 24.3992 -2.49173 -154.457 42.4964 -163.686 27.891 13.5892 3.92714 -78.7529 -24.0683 74.3445 -3.49877e-006 28.0098 1.82319 -4.74245 -59.6313 22.2645 7.62672e-007 24.3992 -2.49173 139.09 68.6867 165.718 5.96046e-007 2.15392 0 -1.269 -4.40318 -0.322927 5.39124e-013 62.0609 0.472496 -1.02976e-005 -2.13277e-008 8.29341e-008 22.6695 9.65299 -5.36221 -127.347 36.8586 47.587 -2.28882e-005 25.813 1.69098 179.966 -62.9357 -173.615 -7.79022e-006 28.5636 -0.966317 17.2729 12.3067 -62.4614 -22.6695 9.65299 -5.36221 154.381 7.06008 -42.4397 -2.84217e-014 25.813 1.69102 179.777 -76.447 -179.889 -7.85812e-006 28.5636 -0.9663 -50.4519 9.65902 94.0572 -9.53674e-007 23.1438 -0.944998 1.16034 2.17467 4.7987 1.90735e-006 20.8625 4.12737 1.83656 2.69771 4.48289 1.18984e-006 7.55203 -7.58201 -1.0101e-005 0.0568386 -1.31217e-007 
